<svg width="75" height="75" viewBox="0 0 75 75" fill="none" xmlns="http://www.w3.org/2000/svg">
<path d="M74.8554 40.9644C74.182 34.1911 71.156 27.8056 66.3346 22.984C62.2142 18.8638 57.171 16.216 51.8643 15.0387V11.3168C54.0318 10.7776 55.6428 8.81569 55.6428 6.48377C55.6428 3.73743 53.4086 1.50322 50.6623 1.50322H40.1152C37.3689 1.50322 35.1347 3.73743 35.1347 6.48377C35.1347 8.81554 36.7457 10.7774 38.913 11.3168V15.0491C33.6226 16.2314 28.5961 18.8755 24.4874 22.9842C23.5883 23.8833 22.7592 24.8265 22.0002 25.8068C21.9635 25.804 21.9267 25.8013 21.8892 25.8013H11.4504C10.6415 25.8013 9.98556 26.4571 9.98556 27.2661C9.98556 28.0752 10.6415 28.731 11.4504 28.731H20.007C18.933 30.5291 18.0669 32.4175 17.4077 34.3614H1.46487C0.655967 34.3614 0 35.0172 0 35.8262C0 36.6353 0.655967 37.2911 1.46487 37.2911H16.5799C16.1578 39.1443 15.9155 41.0303 15.8529 42.9216H9.37515C8.56625 42.9216 7.91028 43.5774 7.91028 44.3865C7.91028 45.1955 8.56625 45.8513 9.37515 45.8513H15.8997C16.0233 47.7474 16.3281 49.6336 16.8143 51.4818H7.32433C6.51543 51.4818 5.85947 52.1377 5.85947 52.9467C5.85947 53.7557 6.51543 54.4116 7.32433 54.4116H17.7492C19.1862 58.213 21.432 61.776 24.4874 64.8315C29.3136 69.6576 35.7057 72.6843 42.486 73.3542C43.4537 73.4497 44.4221 73.497 45.3892 73.497C51.1054 73.497 56.7489 71.8428 61.5376 68.7243C62.2155 68.2828 62.4073 67.3753 61.9658 66.6974C61.5243 66.0195 60.6168 65.8277 59.9388 66.2692C49.4567 73.0951 35.4184 71.6192 26.5591 62.7598C16.1641 52.3649 16.1641 35.4511 26.5591 25.0559C36.9539 14.6611 53.8677 14.6611 64.2628 25.0559C73.1105 33.9037 74.5944 47.93 67.7911 58.407C67.3505 59.0855 67.5434 59.9929 68.2218 60.4333C68.9006 60.874 69.8076 60.681 70.2481 60.0025C73.883 54.4045 75.5193 47.6434 74.8554 40.9644ZM38.0644 6.48391C38.0644 5.35304 38.9844 4.4331 40.1152 4.4331H50.6623C51.7931 4.4331 52.7131 5.35304 52.7131 6.48391C52.7131 7.61479 51.7931 8.53473 50.6623 8.53473H50.3995H40.3779H40.1152C38.9844 8.53473 38.0644 7.61464 38.0644 6.48391ZM41.8427 14.5455V11.4645H48.9346V14.5402C46.5797 14.2602 44.1972 14.2619 41.8427 14.5455Z" fill="#D94F2D"/>
<path d="M65.2993 62.3301C64.9126 62.3301 64.5361 62.4868 64.2638 62.7593C63.9899 63.0317 63.8345 63.4097 63.8345 63.7949C63.8345 64.1802 63.9899 64.5581 64.2638 64.8306C64.5361 65.1045 64.9127 65.2598 65.2993 65.2598C65.6846 65.2598 66.061 65.1045 66.335 64.8306C66.6074 64.5581 66.7642 64.1802 66.7642 63.7949C66.7642 63.4097 66.6076 63.0317 66.335 62.7593C66.061 62.4868 65.6844 62.3301 65.2993 62.3301Z" fill="#D94F2D"/>
<path d="M45.411 21.1833C32.8808 21.1833 22.6866 31.3773 22.6866 43.9076C22.6866 56.4379 32.8808 66.632 45.411 66.632C57.9412 66.632 68.1353 56.4379 68.1353 43.9076C68.1353 31.3773 57.9412 21.1833 45.411 21.1833ZM45.411 63.7022C34.4961 63.7022 25.6164 54.8223 25.6164 43.9076C25.6164 32.9929 34.4961 24.113 45.411 24.113C56.3258 24.113 65.2056 32.9929 65.2056 43.9076C65.2056 54.8223 56.3258 63.7022 45.411 63.7022Z" fill="#D94F2D"/>
<path d="M54.6771 32.5698L47.4216 39.8252C46.8149 39.5252 46.1324 39.3557 45.411 39.3557C44.6894 39.3557 44.007 39.5252 43.4003 39.8252L40.1531 36.578C39.581 36.006 38.6537 36.006 38.0814 36.578C37.5093 37.15 37.5093 38.0776 38.0814 38.6496L41.3285 41.8968C41.0284 42.5035 40.859 43.186 40.859 43.9075C40.859 46.4174 42.9009 48.4594 45.411 48.4594C47.921 48.4594 49.9629 46.4174 49.9629 43.9075C49.9629 43.186 49.7934 42.5035 49.4934 41.8968L56.5359 34.8543L56.7487 34.6414C57.3208 34.0694 57.3208 33.1419 56.7487 32.5698C56.1767 31.9978 55.2494 31.9978 54.6771 32.5698ZM45.411 45.5298C44.5165 45.5298 43.7888 44.8021 43.7888 43.9076C43.7888 43.0132 44.5165 42.2854 45.411 42.2854C46.3054 42.2854 47.0332 43.0132 47.0332 43.9076C47.0332 44.8021 46.3054 45.5298 45.411 45.5298Z" fill="#D94F2D"/>
<path d="M61.0732 42.4606H59.716C58.9071 42.4606 58.2512 43.1164 58.2512 43.9255C58.2512 44.7345 58.9071 45.3903 59.716 45.3903H61.0732C61.8821 45.3903 62.538 44.7345 62.538 43.9255C62.538 43.1164 61.8821 42.4606 61.0732 42.4606Z" fill="#D94F2D"/>
<path d="M31.1058 42.4249H29.7488C28.9399 42.4249 28.2839 43.0807 28.2839 43.8898C28.2839 44.6988 28.9399 45.3546 29.7488 45.3546H31.1058C31.9147 45.3546 32.5707 44.6988 32.5707 43.8898C32.5707 43.0807 31.9147 42.4249 31.1058 42.4249Z" fill="#D94F2D"/>
<path d="M45.4288 31.0673C46.2377 31.0673 46.8937 30.4115 46.8937 29.6024V28.2454C46.8937 27.4364 46.2377 26.7805 45.4288 26.7805C44.6199 26.7805 43.964 27.4364 43.964 28.2454V29.6024C43.964 30.4115 44.6199 31.0673 45.4288 31.0673Z" fill="#D94F2D"/>
<path d="M45.3931 56.7479C44.5842 56.7479 43.9282 57.4037 43.9282 58.2127V59.5698C43.9282 60.3788 44.5842 61.0346 45.3931 61.0346C46.202 61.0346 46.8579 60.3788 46.8579 59.5698V58.2127C46.8579 57.4037 46.202 56.7479 45.3931 56.7479Z" fill="#D94F2D"/>
<path d="M1.46484 51.4813C1.07959 51.4813 0.70166 51.638 0.429199 51.9105C0.156738 52.183 0 52.5609 0 52.9461C0 53.3329 0.156592 53.7093 0.429199 53.9818C0.701807 54.2542 1.07959 54.411 1.46484 54.411C1.8501 54.411 2.22803 54.2542 2.50034 53.9818C2.7728 53.7093 2.92969 53.3314 2.92969 52.9461C2.92969 52.5609 2.77295 52.183 2.50034 51.9105C2.22803 51.638 1.8501 51.4813 1.46484 51.4813Z" fill="#D94F2D"/>
</svg>
