<svg width="75" height="75" viewBox="0 0 75 75" fill="none" xmlns="http://www.w3.org/2000/svg">
<path d="M72 45.5508C71.4186 45.1483 70.7494 44.8905 70.0482 44.7988C69.3471 44.707 68.6341 44.7841 67.9687 45.0234L62.8477 46.875C62.1887 45.9257 61.2888 45.169 60.2404 44.683C59.1921 44.1969 58.0331 43.9989 56.8828 44.1094L49.7578 44.8125L47.8125 42.6562C44.9769 39.4865 41.071 37.4751 36.8437 37.0078C33.7231 36.6772 30.5735 37.2551 27.7734 38.6719L22.6289 41.25H18.8086V38.6719C18.8086 38.3611 18.6851 38.063 18.4654 37.8432C18.2456 37.6235 17.9475 37.5 17.6367 37.5H2.40234C2.09154 37.5 1.79347 37.6235 1.5737 37.8432C1.35393 38.063 1.23047 38.3611 1.23047 38.6719V62.1094C1.23047 62.4202 1.35393 62.7182 1.5737 62.938C1.79347 63.1578 2.09154 63.2812 2.40234 63.2812H17.6367C17.9475 63.2812 18.2456 63.1578 18.4654 62.938C18.6851 62.7182 18.8086 62.4202 18.8086 62.1094V58.5937H25.6992L42.7617 62.6601C43.4833 62.833 44.2229 62.9195 44.9648 62.918C46.2881 62.9159 47.5967 62.6407 48.8086 62.1094L73.1836 51.5625C73.3932 51.471 73.5715 51.3202 73.6964 51.1286C73.8214 50.937 73.8875 50.7131 73.8867 50.4844V49.2187C73.8953 48.4998 73.7279 47.7897 73.3991 47.1503C73.0702 46.511 72.5899 45.9618 72 45.5508ZM16.4648 60.9375H3.57422V39.8437H16.4648V60.9375ZM71.543 49.6172L47.8711 59.918C46.4305 60.54 44.8273 60.6798 43.3008 60.3164L26.1094 56.25C26.0199 56.2378 25.9293 56.2378 25.8398 56.25H18.8086V43.5351H22.9102C23.0975 43.5197 23.2784 43.4594 23.4375 43.3594L28.8281 40.6641C31.2278 39.4682 33.9209 38.9881 36.5859 39.2812C40.2394 39.6867 43.613 41.4319 46.0547 44.1797L48.3984 46.793C48.5219 46.9318 48.6766 47.0392 48.8498 47.1065C49.023 47.1737 49.2097 47.1988 49.3945 47.1797L57.1055 46.418C58.0071 46.329 58.9134 46.5344 59.6886 47.0034C60.4638 47.4723 61.0664 48.1796 61.4062 49.0195L61.6055 49.5351H53.6484C53.3376 49.5351 53.0396 49.6586 52.8198 49.8784C52.6 50.0981 52.4766 50.3962 52.4766 50.707C52.4766 51.0178 52.6 51.3159 52.8198 51.5357C53.0396 51.7554 53.3376 51.8789 53.6484 51.8789H63.3398C63.5276 51.88 63.7128 51.836 63.88 51.7506C64.0472 51.6652 64.1914 51.5409 64.3005 51.3882C64.4096 51.2354 64.4804 51.0587 64.507 50.8728C64.5335 50.687 64.5151 50.4975 64.4531 50.3203L63.9258 49.0078L68.7891 47.2266C69.1042 47.1143 69.4419 47.0804 69.7731 47.1278C70.1042 47.1751 70.4189 47.3023 70.6899 47.4984C70.961 47.6945 71.1802 47.9535 71.3289 48.2532C71.4775 48.553 71.5509 48.8843 71.543 49.2187V49.6172ZM51.5625 36.3281H51.6562C52.1016 36.3281 62.3789 35.7891 66.6094 29.2969C70.8398 22.8047 67.1836 13.1836 67.0312 12.7851C66.9417 12.5513 66.7795 12.3524 66.5687 12.2174C66.3578 12.0824 66.1092 12.0186 65.8594 12.0351C65.4492 12.0351 56.1445 12.5391 51.5859 18.1641C47.0273 12.5391 37.7227 12.0469 37.3125 12.0351C37.0627 12.0186 36.8141 12.0824 36.6032 12.2174C36.3923 12.3524 36.2302 12.5513 36.1406 12.7851C35.9883 13.1836 32.3203 22.8164 36.5625 29.2969C40.8047 35.7773 51.1289 36.3281 51.5625 36.3281ZM65.1328 14.4492C65.8711 16.793 67.5937 23.5312 64.6641 28.0195C62.3203 31.6992 57.2227 33.1289 54.1172 33.668C56.3874 30.5265 58.3089 27.1472 59.8477 23.5898C59.9658 23.3023 59.9648 22.9797 59.845 22.6929C59.7253 22.4061 59.4965 22.1786 59.209 22.0605C58.9215 21.9424 58.5989 21.9434 58.3121 22.0631C58.0253 22.1829 57.7978 22.4117 57.6797 22.6992C56.167 26.1831 54.2727 29.4885 52.0312 32.5547C51.2578 29.5781 50.4023 24.1523 52.8867 20.3437C55.8398 15.8555 62.707 14.7187 65.1328 14.4492ZM38.1094 14.4492C40.4531 14.7187 47.3086 15.8437 50.2734 20.3086C49.2536 22.5476 48.7912 25.0003 48.9258 27.457C47.1838 26.5716 45.7139 25.2312 44.6719 23.5781C44.5867 23.4493 44.477 23.3386 44.3489 23.2523C44.2208 23.166 44.077 23.1059 43.9256 23.0754C43.7743 23.045 43.6184 23.0447 43.4669 23.0746C43.3154 23.1046 43.1713 23.1642 43.043 23.25C42.7861 23.4218 42.6075 23.6882 42.546 23.991C42.4846 24.2939 42.5452 24.6088 42.7148 24.8672C44.2629 27.2567 46.5455 29.0787 49.2187 30.0586C49.3995 31.3203 49.6618 32.569 50.0039 33.7969C47.1094 33.3867 41.2852 32.0742 38.6367 28.0195C35.6484 23.5312 37.3711 16.7812 38.1094 14.4492Z" fill="#D94F2D"/>
</svg>
