<svg width="75" height="75" viewBox="0 0 75 75" fill="none" xmlns="http://www.w3.org/2000/svg">
<path d="M74.5652 0.422581C74.165 0.0276596 73.5733 -0.104176 73.0441 0.0853743L12.2015 21.7792C10.0877 20.4867 7.4066 20.184 4.94757 21.2022C0.865787 22.8931 -1.07967 27.5895 0.611051 31.6716C4.5982 41.2968 10.3549 49.9126 17.7217 57.2794C25.0886 64.6462 33.7042 70.4031 43.3295 74.3901C44.3291 74.804 45.3652 75 46.3853 75C49.531 74.9999 52.5221 73.1359 53.7987 70.0534C54.6577 67.9795 54.5765 65.7474 53.7549 63.8307L74.922 1.93913C75.1039 1.4071 74.9654 0.817649 74.5652 0.422581ZM21.4138 21.6048L27.8621 19.3059C28.6191 20.1124 28.9881 21.2227 28.8403 22.3457C28.7099 23.3345 28.2025 24.2135 27.4113 24.8207C26.6202 25.4279 25.6405 25.6902 24.651 25.5603C23.6624 25.4301 22.7835 24.9228 22.1763 24.1315C21.6169 23.4024 21.3507 22.513 21.4138 21.6048ZM51.092 68.9321C50.0194 71.5216 47.0396 72.7557 44.4507 71.6829C25.6948 63.9141 11.087 49.3061 3.31793 30.5503C2.79835 29.2959 2.79835 27.9144 3.31793 26.6599C3.83751 25.4056 4.81441 24.4287 6.06876 23.9091C7.3231 23.3895 8.70474 23.3895 9.95908 23.9091C11.2134 24.4287 12.1903 25.4056 12.7099 26.6599C16.0352 34.6883 20.837 41.8745 26.9817 48.0192C33.1264 54.164 40.3126 58.9656 48.341 62.2911C50.9305 63.3635 52.1647 66.3428 51.092 68.9321ZM64.1061 24.511C63.9735 24.5078 63.8408 24.5002 63.7084 24.4829C62.7197 24.3527 61.8408 23.8453 61.2338 23.0541C60.6266 22.2629 60.364 21.2825 60.4941 20.2939C60.7629 18.2528 62.6415 16.8111 64.6834 17.0794C65.3132 17.1624 65.9046 17.4067 66.4089 17.7783L64.1061 24.511ZM67.3826 14.9301C66.669 14.5415 65.8848 14.2826 65.0657 14.1748C61.4225 13.6939 58.069 16.2687 57.5894 19.9116C57.3571 21.6761 57.8258 23.4256 58.9094 24.8377C59.9531 26.1978 61.4472 27.0864 63.1327 27.3574L60.2212 35.8709L56.8728 33.3015C56.2311 32.8094 55.3113 32.9301 54.819 33.5719C54.3265 34.2138 54.4476 35.1333 55.0894 35.6258L59.221 38.796L51.6486 60.9378C51.0135 60.3856 50.2821 59.9236 49.4628 59.5842C33.9384 53.1537 21.8476 41.0629 15.4174 25.5388C15.1938 24.9988 14.9161 24.4975 14.5957 24.0358L18.5184 22.6372C18.6554 23.819 19.1091 24.9464 19.8522 25.9148C20.9356 27.3269 22.5043 28.2325 24.2688 28.4646C24.5644 28.5036 24.8592 28.5229 25.1524 28.5229C26.6096 28.5229 28.0194 28.0469 29.1949 27.145C30.6072 26.0613 31.5126 24.4929 31.7451 22.728C31.9535 21.1438 31.5838 19.5747 30.7537 18.2748L48.9627 11.7823L49.6528 13.4484C49.8866 14.0125 50.4319 14.3531 51.0067 14.3531C51.1935 14.3531 51.3833 14.317 51.5667 14.2412C52.3141 13.9316 52.669 13.0746 52.3595 12.3272L51.7258 10.7972L71.167 3.86525L67.3826 14.9301Z" fill="#D94F2D"/>
<path d="M15.8202 39.2982C15.8158 39.2913 15.8037 39.2727 15.799 39.2659C15.3505 38.5931 14.4427 38.4125 13.7696 38.8606C13.0977 39.308 12.9154 40.216 13.3602 40.8891C13.6407 41.3201 14.11 41.5552 14.5895 41.5552C14.8608 41.5552 15.1351 41.4799 15.38 41.3224C16.0606 40.8849 16.2576 39.9786 15.8202 39.2982Z" fill="#D94F2D"/>
<path d="M13.5925 35.6591C12.165 33.1563 10.8818 30.5368 9.7786 27.8739C9.46907 27.1262 8.6117 26.7717 7.86478 27.0813C7.11727 27.3908 6.76249 28.2477 7.07216 28.9951C8.22206 31.7711 9.55975 34.5016 11.0477 37.1104C11.318 37.5842 11.8125 37.8499 12.3214 37.8499C12.5675 37.8499 12.817 37.7878 13.0458 37.6573C13.7485 37.2563 13.9934 36.3618 13.5925 35.6591Z" fill="#D94F2D"/>
<path d="M45.8397 18.748C45.5494 18.7096 45.2545 18.6903 44.9633 18.6903C41.6356 18.6903 38.7982 21.1813 38.3634 24.4845C37.8838 28.1273 40.4571 31.4812 44.0999 31.9607C44.3902 31.9991 44.6851 32.0185 44.9763 32.0185C48.3038 32.0185 51.1412 29.5275 51.5762 26.224C52.0556 22.5814 49.4823 19.2276 45.8397 18.748ZM48.6717 25.8417C48.4279 27.6928 46.8393 29.0886 44.9763 29.0886C44.8125 29.0886 44.6463 29.0778 44.4824 29.0561C42.4411 28.7873 40.9994 26.9081 41.2681 24.8668C41.5118 23.0158 43.1003 21.6201 44.9633 21.6201C45.127 21.6201 45.2933 21.631 45.4572 21.6527C47.4983 21.9216 48.9403 23.8007 48.6717 25.8417Z" fill="#D94F2D"/>
<path d="M45.4585 36.9688C45.168 36.9304 44.8733 36.9111 44.5821 36.9111C41.2544 36.9111 38.417 39.402 37.9823 42.7054C37.7498 44.4701 38.2186 46.2194 39.3021 47.6317C40.3855 49.0438 41.954 49.9493 43.7187 50.1818C44.0089 50.22 44.3036 50.2392 44.5947 50.2392C47.9224 50.2392 50.7599 47.7483 51.1948 44.4448C51.6746 40.8023 49.1011 37.4487 45.4585 36.9688ZM48.2905 44.0626C48.0468 45.9137 46.458 47.3096 44.595 47.3096C44.4314 47.3096 44.2651 47.2986 44.1014 47.277C43.1126 47.1467 42.2337 46.6392 41.6265 45.8481C41.0193 45.0569 40.7567 44.0766 40.8869 43.0877C41.1307 41.2368 42.7193 39.8409 44.5821 39.8409C44.7459 39.8409 44.9121 39.8517 45.0761 39.8734C47.117 40.1422 48.559 42.0215 48.2905 44.0626Z" fill="#D94F2D"/>
<path d="M35.797 30.9003L31.2947 30.3074C30.493 30.2009 29.7568 30.7664 29.6512 31.5684C29.5454 32.3705 30.1101 33.1063 30.9121 33.2119L35.4144 33.8047C35.4793 33.8134 35.5438 33.8175 35.6075 33.8175C36.3313 33.8175 36.9609 33.2809 37.0578 32.5438C37.1637 31.7418 36.5992 31.0059 35.797 30.9003Z" fill="#D94F2D"/>
<path d="M33.5141 41.7103L33.1165 38.6892C33.0109 37.8871 32.2753 37.3223 31.4731 37.4282C30.671 37.5338 30.1064 38.2694 30.212 39.0716L30.6097 42.0927C30.7067 42.8299 31.3362 43.3665 32.0601 43.3665C32.1238 43.3665 32.1883 43.3624 32.253 43.3537C33.0552 43.2481 33.6197 42.5125 33.5141 41.7103Z" fill="#D94F2D"/>
</svg>
